<svg width="70" height="64" viewBox="0 0 70 64" fill="none" xmlns="http://www.w3.org/2000/svg">
<path d="M66.1023 30.6496C66.0628 29.1234 66.0227 27.3386 66.043 25.2564H65.9832C65.5666 27.0214 65.0112 29.024 64.5754 30.491L63.2473 35.1505H60.4511L59.321 30.5114C58.9841 29.0636 58.5675 27.0807 58.2701 25.2564H58.2305C58.1509 27.1405 58.0714 29.1234 58.0127 30.6496L57.814 35.4277H54.5227L55.3361 22.0645H60.1536L61.046 25.6532C61.4021 27.1405 61.7995 28.9247 62.0767 30.5509H62.1557C62.5333 28.9247 62.969 27.0412 63.3658 25.6334L64.357 22.0645H69.0758L69.7497 35.4277H66.2603L66.1023 30.6496Z" fill="#BF0D3E"/>
<path d="M53.3868 64H9.88235C4.65109 64 0.395752 59.7447 0.395752 54.514V9.0898C0.395752 4.07811 4.47385 0 9.48555 0H53.3868C58.3985 0 62.4761 4.07811 62.4761 9.0898V17.6631C62.4761 17.9691 62.2277 18.2174 61.9212 18.2174C61.6153 18.2174 61.3664 17.9691 61.3664 17.6631V9.0898C61.3664 4.6894 57.7867 1.1097 53.3868 1.1097H9.48555C5.08514 1.1097 1.50544 4.6894 1.50544 9.0898V54.514C1.50544 59.1328 5.26294 62.8903 9.88235 62.8903H53.3868C57.7867 62.8903 61.3664 59.3106 61.3664 54.9113V39.8537C61.3664 39.5477 61.6153 39.2988 61.9212 39.2988C62.2277 39.2988 62.4761 39.5477 62.4761 39.8537V54.9113C62.4761 59.9225 58.3985 64 53.3868 64Z" fill="#5B6770"/>
<path d="M13.7192 51.6359C14.3005 51.7138 14.9976 51.7138 16.0035 51.7138C18.6744 51.7138 21.0361 50.6685 21.0361 47.9592C21.0361 45.3272 18.6744 44.2824 15.7325 44.2824H13.7192V51.6359ZM13.7192 40.0632H15.6558C18.7523 40.0632 20.4163 38.7858 20.4163 36.8509C20.4163 34.8765 18.907 33.8317 16.2366 33.8317C14.9587 33.8317 14.2238 33.909 13.7192 33.9864V40.0632ZM7.87549 29.8219L12.6851 29.6012C13.6046 29.5589 14.563 29.5352 15.5011 29.5352C19.1 29.5352 21.3064 29.8834 23.2029 31.0061C25.0221 31.9736 26.3384 33.7538 26.3384 36.1154C26.3384 38.4376 24.9838 40.605 22.0419 41.6888V41.7661C25.0222 42.5789 27.2286 44.8237 27.2286 48.1911C27.2286 50.5522 26.1556 52.4233 24.5187 53.7261C22.9083 55.0079 20.3706 56.0871 18.3103 56.0871H12.0332C9.73646 56.0871 7.87549 54.2262 7.87549 51.9295V29.8219Z" fill="#5B6770"/>
<path d="M35.0644 31.99C35.0644 33.6156 33.8254 34.9319 31.8905 34.9319C30.0324 34.9319 28.7945 33.6156 28.8329 31.99C28.7945 30.2877 30.0324 29.0098 31.9289 29.0098C33.8254 29.0098 35.0254 30.2877 35.0644 31.99Z" fill="#BF0D3E"/>
<path d="M34.6386 36.7695H29.2578V55.6965H34.6386V36.7695Z" fill="#5B6770"/>
<path d="M42.6836 46.3353C42.6836 49.5865 43.9812 52.0249 46.3903 52.0249C48.5781 52.0249 49.9864 49.7411 49.9864 46.3353C49.9864 43.5097 48.9489 40.6457 46.3903 40.6457C43.6843 40.6457 42.6836 43.5486 42.6836 46.3353ZM36.863 46.4899C36.863 40.3742 40.7188 36.4648 46.5387 36.4648C52.0996 36.4648 55.8069 40.4521 55.8069 46.1417C55.8069 53.0696 51.0989 56.2441 46.2424 56.2441C40.9411 56.2441 36.863 52.6057 36.863 46.4899Z" fill="#5B6770"/>
</svg>
