<svg id="Layer_1" data-name="Layer 1" xmlns="http://www.w3.org/2000/svg" width="160px" height="50px" viewBox="0 0 133.07 42">
  <defs>
    <style>
      .cls-1 {
        fill: #004b76;
      }

      .cls-1, .cls-2 {
        stroke-width: 0px;
      }

      .cls-3 {
        fill: none;
        stroke: #004b76;
        stroke-miterlimit: 10;
        stroke-width: .75px;
      }

      .cls-2 {
        fill: #80cdec;
      }
    </style>
  </defs>
  <g>
    <path class="cls-1" d="M81.36,34.41c0,.31-.21.55-.57.55-.32,0-.54-.24-.54-.55s.23-.56.56-.56.55.25.55.56ZM80.36,40.74v-4.95h.9v4.95h-.9Z"/>
    <path class="cls-1" d="M82.75,37.13c0-.51-.01-.93-.04-1.34h.8l.05.82h.02c.25-.47.82-.93,1.64-.93.68,0,1.75.41,1.75,2.11v2.95h-.9v-2.85c0-.8-.3-1.46-1.14-1.46-.59,0-1.05.42-1.21.92-.04.11-.06.27-.06.42v2.97h-.9v-3.61Z"/>
    <path class="cls-1" d="M89.42,34.41c0,.31-.21.55-.57.55-.32,0-.54-.24-.54-.55s.23-.56.56-.56.55.25.55.56ZM88.42,40.74v-4.95h.9v4.95h-.9Z"/>
    <path class="cls-1" d="M91.89,34.37v1.42h1.29v.68h-1.29v2.67c0,.61.17.96.67.96.23,0,.41-.03.52-.06l.04.67c-.17.07-.45.12-.8.12-.42,0-.76-.13-.97-.38-.26-.27-.35-.71-.35-1.29v-2.7h-.77v-.68h.77v-1.19l.88-.23Z"/>
    <path class="cls-1" d="M95.19,34.41c0,.31-.21.55-.57.55-.32,0-.54-.24-.54-.55s.23-.56.56-.56.55.25.55.56ZM94.19,40.74v-4.95h.9v4.95h-.9Z"/>
    <path class="cls-1" d="M99.32,40.74l-.07-.62h-.03c-.28.39-.81.74-1.51.74-1,0-1.51-.71-1.51-1.42,0-1.2,1.06-1.85,2.97-1.84v-.1c0-.41-.11-1.14-1.12-1.14-.46,0-.94.14-1.29.37l-.2-.59c.41-.27,1-.44,1.63-.44,1.51,0,1.88,1.03,1.88,2.02v1.85c0,.43.02.85.08,1.19h-.82ZM99.19,38.22c-.98-.02-2.1.15-2.1,1.11,0,.58.39.86.85.86.64,0,1.05-.41,1.2-.83.03-.09.05-.19.05-.29v-.86Z"/>
    <path class="cls-1" d="M101.51,33.49h.9v7.26h-.9v-7.26Z"/>
  </g>
  <g>
    <path class="cls-1" d="M112.41,37.13c0-.51-.01-.93-.04-1.34h.8l.05.82h.02c.25-.47.82-.93,1.64-.93.68,0,1.75.41,1.75,2.11v2.95h-.9v-2.85c0-.8-.3-1.46-1.14-1.46-.59,0-1.05.42-1.21.92-.04.11-.06.27-.06.42v2.97h-.9v-3.61Z"/>
    <path class="cls-1" d="M118.58,38.43c.02,1.22.8,1.72,1.7,1.72.64,0,1.03-.11,1.37-.26l.15.64c-.32.14-.86.31-1.65.31-1.52,0-2.43-1-2.43-2.49s.88-2.67,2.32-2.67c1.61,0,2.04,1.42,2.04,2.33,0,.18-.02.33-.03.42h-3.47ZM121.22,37.79c0-.57-.23-1.46-1.25-1.46-.91,0-1.31.84-1.38,1.46h2.63Z"/>
    <path class="cls-1" d="M123.59,35.8l.7,1.06c.18.28.34.53.5.81h.03c.16-.3.33-.55.49-.82l.69-1.05h.97l-1.69,2.39,1.74,2.56h-1.02l-.73-1.11c-.19-.29-.36-.56-.53-.86h-.02c-.16.3-.34.56-.52.86l-.72,1.11h-.99l1.76-2.52-1.68-2.42h1Z"/>
    <path class="cls-1" d="M129.12,34.37v1.42h1.29v.68h-1.29v2.67c0,.61.17.96.67.96.23,0,.41-.03.52-.06l.04.67c-.17.07-.45.12-.8.12-.42,0-.76-.13-.97-.38-.26-.27-.35-.71-.35-1.29v-2.7h-.77v-.68h.77v-1.19l.88-.23Z"/>
  </g>
  <line class="cls-3" x1="107.41" y1="32.19" x2="107.41" y2="42"/>
  <g>
    <path class="cls-1" d="M5.48,14.82c0,5.61,3.83,9.73,10.63,9.73,1.26,0,2.6-.3,3.68-.67v-9.92h4.49v12.67c-1.34,1-4.72,2.19-8.36,2.19C6.56,28.83.84,22.74.84,14.82.84,6.39,7.04,0,16.81,0c3.08,0,5.98.67,7.73,1.67v4.35c-1.9-.97-4.76-1.86-7.5-1.86-7.28,0-11.55,4.38-11.55,10.66Z"/>
    <path class="cls-1" d="M28.26,14.41c0-8.17,6.17-14.41,14.34-14.41s14.38,6.24,14.38,14.41-6.13,14.41-14.38,14.41-14.34-6.28-14.34-14.41ZM52.4,14.41c0-5.83-4.2-10.25-9.81-10.25s-9.73,4.42-9.73,10.25,4.12,10.14,9.73,10.14,9.81-4.38,9.81-10.14Z"/>
    <path class="cls-1" d="M61.25,15.42h11.55v4.35h-11.55v-4.35Z"/>
    <path class="cls-1" d="M100.49,19.62c0,5.76-4.53,9.21-13.26,9.21-3.16,0-7.24-.63-8.84-1.34V.37h11.03c5.46,0,8.51,2.82,8.51,6.98,0,2.12-1.19,4.2-2.86,5.2,2.86.82,5.42,3.34,5.42,7.06ZM89.38,4.53h-6.54v6.87h6.69c2.68,0,3.83-1.63,3.83-3.49s-1.11-3.38-3.98-3.38ZM95.92,19.58c0-2.38-1.63-4.35-5.02-4.35h-8.06v8.8c1.23.41,3.34.59,4.83.59,6.2,0,8.25-2.12,8.25-5.05Z"/>
    <path class="cls-1" d="M104.06,3.75c0-1.82,1.15-2.75,2.82-2.75s2.82.93,2.82,2.75c0,1.67-1.11,2.64-2.82,2.64s-2.82-.97-2.82-2.64ZM104.61,9.66h4.46v18.58h-4.46V9.66Z"/>
    <path class="cls-1" d="M113.2,18.95c0-5.65,4.53-9.84,9.92-9.84s9.96,4.24,9.96,9.84-4.49,9.88-9.96,9.88-9.92-4.24-9.92-9.88ZM128.73,18.95c0-3.6-2.38-5.94-5.61-5.94s-5.61,2.34-5.61,5.94,2.49,5.98,5.61,5.98,5.61-2.41,5.61-5.98Z"/>
  </g>
  <rect class="cls-2" x="60.27" y="34.89" width="5.38" height="5.69"/>
  <rect class="cls-2" x="67.8" y="34.89" width="5.38" height="5.69"/>
  <rect class="cls-2" x="52.74" y="34.89" width="5.38" height="5.69"/>
  <rect class="cls-2" x="45.2" y="34.89" width="5.38" height="5.69"/>
  <rect class="cls-2" x="37.67" y="34.89" width="5.38" height="5.69"/>
  <rect class="cls-2" x="30.14" y="34.89" width="5.38" height="5.69"/>
  <rect class="cls-2" x="22.6" y="34.89" width="5.38" height="5.69"/>
  <rect class="cls-2" x="15.07" y="34.89" width="5.38" height="5.69"/>
  <rect class="cls-2" x="7.53" y="34.89" width="5.38" height="5.69"/>
  <rect class="cls-2" y="34.89" width="5.38" height="5.69"/>
</svg>
