<?xml version="1.0" encoding="UTF-8"?>
<svg data-bbox="0 0 188.713 89" xmlns="http://www.w3.org/2000/svg" viewBox="0 0 189 89" height="89" width="189" data-type="color">
    <g fill-rule="evenodd">
        <path fill="#DA2136" d="M0 89h55V0H0z" data-color="1"/>
        <path fill="#FFFFFF" d="M19.414 67.682c0 1.793 4.845 3.098 10.86 3.098s10.911-1.305 10.911-3.098c0-1.79-4.949-3.104-10.961-3.104-6.014 0-10.81 1.313-10.81 3.104m25.888 6.44H17.086c-.593-.811-1.498-2.408-1.792-4.912-.417-3.63-.04-6.612.796-10.284.695-3.05 1.687-6.004 2.086-7.232.394-1.228 1.583-4.28 1.583-4.28 1.988-5.608 5.903-12.544 5.903-12.544v-7.332c-.549.687-4.9 8.588-8.434 16.185-3.766 8.115-5.26 16.873-5.26 16.873s-.686 5.066-.586 6.397c.098 1.327.3 3.74.735 5.115a23 23 0 0 0 .77 2.014H9.745s-2.63.247-2.63 2.906c0 2.308 2.477 2.656 2.477 2.656h35.96s2.426-.194 2.426-2.804c0-2.608-2.676-2.758-2.676-2.758m-17.415-20.51c2.39-.902 4.12-.594 5.315-.594 1.183 0 3.567.741 3.918 1.183.341.442.695.738.4 1.676-.302.932-1.15 1.082-1.15 1.082-.502.555-4.314.784-5.202.685-.542-.059-1.095.64-1.095 1.185 0 .539.498 1.02.946 1.031 5.107.096 6.394-.934 6.394-.934s2.134-.4 2.381-3.05c.25-2.656-1.783-3.74-1.783-3.74V15.633h-4.065V9.336s0-1.083-1.338-1.083c-1.345 0-1.354 1.283-1.354 1.283v6.076h-2.217s-1.54.364-1.54 1.987c0 1.625 1.765 1.76 1.765 1.76l5.374-.011V51h-.147c-5.36-.735-8.034.837-8.034.837-.394.298-.894.742-.494 1.429.537.934.893.737 1.926.344" data-color="2"/>
        <path fill="#FFFFFF" d="M71.036 44.749c-.627 1.528-.911 2.205-.952 2.311v.04h-2.368v-.04c.04-.1.35-.783 2.342-5.332l2.945-6.767h.315l2.908 6.778c1.94 4.538 2.23 5.215 2.272 5.321v.04h-2.58v-.04c-.028-.106-.305-.783-.915-2.311zm3.278-1.848-.006-.036c-.884-2.26-1.107-2.91-1.238-3.379h-.024c-.13.469-.378 1.129-1.29 3.379l-.01.036z" data-color="3"/>
        <path fill="#FFFFFF" d="M80.919 35.067h.277c3.802 6.488 4.217 7.23 4.672 8.16h.027c.445-.895.88-1.648 4.77-8.16h.286l.896 6.679c.595 4.53.707 5.226.72 5.323v.03H90.22v-.03c-.014-.097-.122-.896-.445-3.633-.116-1.044-.213-1.953-.256-2.885h-.018c-.467 1.035-.851 1.732-1.314 2.585-.449.812-1.217 2.115-2.236 3.769h-.288c-1.034-1.682-1.81-2.997-2.263-3.822-.452-.847-.873-1.64-1.257-2.55h-.02a45 45 0 0 1-.266 2.915c-.314 2.725-.409 3.515-.42 3.621v.03h-2.242v-.03c.03-.106.134-.792.775-5.323z" data-color="3"/>
        <path fill="#FFFFFF" d="M94.164 40.221v-5.047h6.028v1.935H96.46v2.976h3.364v1.923H96.46v2.92c0 .065 0 .144.012.223h3.839V47.1h-6.147z" data-color="3"/>
        <path fill="#FFFFFF" d="M102.217 40.221v-5.009c.226-.02.582-.049.933-.063.336-.016.97-.028 1.32-.028.91 0 1.659.083 2.36.294.9.257 2.281 1.1 2.281 3.193 0 1.455-.768 2.369-1.296 2.754-.289.223-.634.438-.893.519v.036c.112.144.302.434 2.802 3.893a186 186 0 0 0 .909 1.258v.03h-2.637c-.882-1.318-1.928-2.89-3.217-4.77h-.379v4.77h-2.184zm4.643-1.449c0-1.106-.75-1.733-1.883-1.733-.25 0-.445.019-.576.033v3.611c.1.012.265.012.42.012.418 0 .838-.117 1.134-.296.431-.226.905-.735.905-1.61z" data-color="3"/>
        <path fill="#FFFFFF" d="M113.88 41.745V47.1h-2.315V35.173h2.315z" data-color="3"/>
        <path fill="#FFFFFF" d="M124.375 37.287a10 10 0 0 0-.637-.136 8 8 0 0 0-1.223-.093c-2.762 0-4.503 1.58-4.503 4.052 0 2.45 1.704 4.11 4.247 4.11.537 0 .979-.03 1.415-.1.238-.05.454-.09.701-.168h.027c.019.434.06 1.575.077 2.017-.235.07-.665.166-.997.217-.553.07-.964.095-1.454.095-3.63 0-6.498-2.345-6.498-6.18 0-3.536 2.617-6.092 6.925-6.092.453 0 .762.025 1.076.055.33.036.713.093.967.154-.025.63-.037 1.222-.077 2.069z" data-color="3"/>
        <path fill="#FFFFFF" d="M128.434 44.749c-.626 1.528-.91 2.205-.951 2.311v.04h-2.369v-.04c.043-.1.353-.783 2.341-5.332l2.95-6.767h.316l2.905 6.778c1.937 4.538 2.224 5.215 2.272 5.321v.04h-2.573v-.04c-.028-.106-.314-.783-.92-2.311zm3.28-1.848v-.036c-.89-2.26-1.113-2.91-1.244-3.379h-.024c-.137.469-.38 1.129-1.293 3.379l-.003.036z" data-color="3"/>
        <path fill="#FFFFFF" d="M147.043 47.256h-.29a518 518 0 0 1-5.379-5.293c-.762-.747-1.283-1.25-2.159-2.214h-.027c.021.611.021 1.084.021 2.277V47.1h-2.137V35.04h.29c2.83 2.774 4.476 4.391 5.516 5.459.67.672 1.286 1.282 2.01 2.069h.024c-.006-.716-.006-1.194-.006-2.574v-4.82h2.137z" data-color="3"/>
        <path fill="#FFFFFF" d="M74.536 64.878c0 1.818-1.518 3.257-3.905 3.257-.744 0-1.64-.128-2.172-.357.028-.794.035-1.04.07-2.059h.03c.184.091.374.158.58.227.352.1.79.179 1.3.179.89 0 1.625-.481 1.625-1.368 0-.53-.293-.98-.882-1.463-.5-.412-.909-.766-1.289-1.139-.754-.743-1.34-1.593-1.34-2.835 0-1.722 1.22-3.362 3.908-3.362.557 0 1.189.07 1.575.191-.024.744-.043 1.005-.07 2.038h-.03a3.5 3.5 0 0 0-.57-.16 3.6 3.6 0 0 0-.705-.069c-.972 0-1.691.501-1.691 1.331 0 .495.186.82.517 1.176.339.363.857.754 1.495 1.347.945.867 1.554 1.708 1.554 3.054z" data-color="3"/>
        <path fill="#FFFFFF" d="M88.215 61.938c0 3.467-2.625 6.203-6.257 6.203-3.51 0-6.22-2.715-6.22-6.112 0-3.464 2.731-6.152 6.373-6.152 3.54 0 6.104 2.629 6.104 6.043zm-2.366.057c0-2.247-1.628-4.01-3.842-4.01-2.25 0-3.903 1.745-3.903 4.038 0 2.236 1.632 4.035 3.915 4.035 2.28 0 3.83-1.793 3.83-4.044z" data-color="3"/>
        <path fill="#FFFFFF" d="M98.293 58.146c-.19-.053-.397-.091-.638-.136a8 8 0 0 0-1.222-.095c-2.757 0-4.504 1.58-4.504 4.05 0 2.454 1.704 4.111 4.248 4.111.536 0 .978-.03 1.411-.096.239-.045.458-.092.705-.17h.03c.012.439.058 1.58.074 2.017-.235.073-.668.16-.995.218-.555.07-.964.097-1.454.097-3.632 0-6.498-2.347-6.498-6.185 0-3.53 2.616-6.09 6.925-6.09a9 9 0 0 1 1.076.055c.33.037.713.09.964.155-.024.632-.034 1.228-.071 2.069z" data-color="3"/>
        <path fill="#FFFFFF" d="M102.64 62.606v5.354h-2.309V56.03h2.31v6.578" data-color="3"/>
        <path fill="#FFFFFF" d="M104.995 61.076V56.03h6.032v1.935h-3.73v2.979h3.354v1.927h-3.354v2.913c0 .07 0 .154.006.227h3.839v1.95h-6.147v-6.883" data-color="3"/>
        <path fill="#FFFFFF" d="M115.402 57.973h-3.284v-1.945h8.869v1.945H117.7v9.988h-2.298z" data-color="3"/>
        <path fill="#FFFFFF" d="M127.809 63.024v4.936h-2.302v-4.82l-1.08-1.9c-2.487-4.406-2.826-5.03-2.902-5.181v-.03h2.582v.03c.07.13.436.81 1.259 2.332.464.85.966 1.763 1.29 2.432h.037c.313-.675.78-1.518 1.277-2.392a298 298 0 0 0 1.283-2.372v-.03h2.462v.042c-.065.14-.397.745-2.9 5.187z" data-color="3"/>
        <path fill="#FFFFFF" d="M142.82 57.963h-3.638v3.286h3.358v1.93h-3.358v4.781h-2.302V56.028h6.038v1.935z" data-color="3"/>
        <path fill="#FFFFFF" d="M156.617 61.938c0 3.467-2.625 6.203-6.25 6.203-3.516 0-6.23-2.715-6.23-6.112 0-3.464 2.728-6.152 6.373-6.152 3.543 0 6.107 2.629 6.107 6.043zm-2.375.057c0-2.247-1.616-4.01-3.839-4.01-2.247 0-3.894 1.745-3.894 4.038 0 2.236 1.629 4.035 3.912 4.035s3.82-1.793 3.82-4.044z" data-color="3"/>
        <path fill="#FFFFFF" d="M158.245 61.076v-5.005c.227-.024.593-.049.942-.064.335-.015.97-.027 1.324-.027.903 0 1.656.079 2.357.288.897.262 2.28 1.109 2.28 3.202 0 1.448-.764 2.362-1.295 2.747-.29.227-.634.444-.893.523v.032c.112.15.304.436 2.799 3.893l.908 1.262v.033h-2.634c-.879-1.319-1.927-2.894-3.218-4.773h-.374v4.773h-2.196zm4.654-1.443c0-1.106-.754-1.736-1.885-1.736-.25 0-.446.016-.573.034v3.608c.1.018.26.018.411.018.43 0 .845-.118 1.142-.3.431-.226.905-.738.905-1.61z" data-color="3"/>
        <path fill="#FFFFFF" d="M69.954 76.784h.274c3.803 6.488 4.22 7.228 4.678 8.16h.024c.439-.898.869-1.648 4.77-8.16h.286l.896 6.678c.597 4.531.707 5.226.722 5.323v.031h-2.35v-.03c-.016-.098-.12-.896-.449-3.634-.112-1.043-.21-1.957-.25-2.882h-.021c-.466 1.034-.848 1.733-1.314 2.583-.448.814-1.214 2.117-2.233 3.769h-.292c-1.04-1.682-1.805-3-2.265-3.824-.446-.84-.869-1.64-1.247-2.546h-.028a44 44 0 0 1-.262 2.916c-.314 2.722-.408 3.508-.42 3.617v.031h-2.241v-.03c.027-.11.133-.793.768-5.324z" data-color="3"/>
        <path fill="#FFFFFF" d="M84.346 76.89H83.2v11.925h2.31V76.89z" data-color="3"/>
        <path fill="#FFFFFF" d="M96.006 79.006c-.192-.054-.393-.09-.641-.135a7.3 7.3 0 0 0-1.22-.097c-2.762 0-4.503 1.584-4.503 4.056 0 2.444 1.705 4.104 4.248 4.104.537 0 .978-.027 1.415-.093.237-.055.454-.094.7-.173h.031c.015.438.056 1.576.07 2.02-.237.07-.661.164-.993.21a10 10 0 0 1-1.454.097c-3.636 0-6.498-2.341-6.498-6.177 0-3.54 2.615-6.089 6.918-6.089a9 9 0 0 1 2.05.205c-.029.63-.037 1.226-.078 2.072z" data-color="3"/>
        <path fill="#FFFFFF" d="M98.04 81.932v-5c.229-.022.588-.048.94-.064.337-.018.972-.033 1.321-.033.903 0 1.66.085 2.352.294.906.256 2.287 1.102 2.287 3.2 0 1.452-.768 2.365-1.299 2.75-.286.222-.631.435-.887.516v.042c.109.14.301.43 2.795 3.89.337.47.827 1.15.907 1.258v.03h-2.629c-.88-1.315-1.933-2.894-3.22-4.769h-.378v4.769H98.04zm4.653-1.437c0-1.113-.754-1.737-1.885-1.737-.253 0-.45.016-.579.03V82.4c.1.018.262.018.415.018.426 0 .84-.124 1.14-.302.433-.227.909-.734.909-1.61z" data-color="3"/>
        <path fill="#FFFFFF" d="M119.027 82.796c0 3.473-2.625 6.203-6.253 6.203-3.517 0-6.226-2.712-6.226-6.112 0-3.46 2.727-6.152 6.372-6.152 3.543 0 6.107 2.629 6.107 6.043zm-2.372.064c0-2.254-1.625-4.017-3.836-4.017-2.253 0-3.9 1.743-3.9 4.038 0 2.232 1.631 4.035 3.915 4.035 2.281 0 3.821-1.787 3.821-4.04z" data-color="3"/>
        <path fill="#FFFFFF" d="M127.815 85.452c0 1.22-.71 2.21-1.626 2.731-.765.452-1.73.66-3.497.66-.41 0-.722-.01-1.158-.03-.166 0-.485-.04-.827-.054V76.937c.21-.018.534-.045.855-.054.42-.03 1.081-.033 1.573-.033.697 0 1.487.106 2.067.29.692.227 2.116.91 2.116 2.89 0 1.178-.72 2.219-1.866 2.536v.03c1.244.228 2.363 1.273 2.363 2.838zm-2.735-5.218c0-.958-.695-1.451-1.626-1.451-.188 0-.46.008-.603.027v2.937c.143.018.298.018.415.018.265 0 .508-.03.802-.124a1.424 1.424 0 0 0 1.012-1.395zm.388 4.958c0-.784-.544-1.292-1.126-1.483a3.6 3.6 0 0 0-.943-.138c-.115 0-.403.015-.548.015v3.258c0 .018 0 .026.012.026a5 5 0 0 0 .564.022c.333 0 .738-.064 1.058-.212.405-.172.983-.632.983-1.473z" data-color="3"/>
        <path fill="#FFFFFF" d="M130.8 76.89h-1.152v11.925h2.307V76.89z" data-color="3"/>
        <path fill="#FFFFFF" d="M146.113 82.796c0 3.473-2.629 6.203-6.26 6.203-3.51 0-6.22-2.712-6.22-6.112 0-3.46 2.726-6.152 6.37-6.152 3.546 0 6.11 2.629 6.11 6.043zm-2.37.064c0-2.254-1.627-4.017-3.838-4.017-2.253 0-3.904 1.743-3.904 4.038 0 2.232 1.632 4.035 3.912 4.035 2.284 0 3.83-1.787 3.83-4.04z" data-color="3"/>
        <path fill="#FFFFFF" d="M147.784 81.932V76.89h2.308v9.896c0 .067 0 .082.058.082h3.732v1.947h-6.098v-6.884" data-color="3"/>
        <path fill="#FFFFFF" d="M166.704 82.796c0 3.473-2.631 6.203-6.257 6.203-3.52 0-6.229-2.712-6.229-6.112 0-3.46 2.728-6.152 6.378-6.152 3.538 0 6.108 2.629 6.108 6.043zm-2.376.064c0-2.254-1.618-4.017-3.84-4.017-2.251 0-3.892 1.743-3.892 4.038 0 2.232 1.625 4.035 3.908 4.035s3.824-1.787 3.824-4.04z" data-color="3"/>
        <path fill="#FFFFFF" d="M174.458 88.994c-3.638 0-6.528-2.35-6.528-6.162 0-3.617 2.82-6.127 6.912-6.127.62 0 1.104.03 1.573.087a10 10 0 0 1 1.211.215c-.034.705-.051 1.197-.083 2.078h-.043a7 7 0 0 0-.756-.202 9 9 0 0 0-1.71-.164c-2.714 0-4.625 1.537-4.625 4.105 0 2.483 1.628 4.128 3.994 4.128.348 0 .71-.02 1.04-.091v-3.626h2.296v5.279c-.81.298-1.838.48-3.28.48" data-color="3"/>
        <path fill="#FFFFFF" d="M184.81 83.88v4.935h-2.305v-4.818l-1.07-1.899c-2.492-4.407-2.836-5.03-2.91-5.179v-.03h2.589v.03c.067.131.43.805 1.253 2.33.46.855.974 1.763 1.29 2.432h.031c.317-.672.789-1.516 1.287-2.39.847-1.567 1.231-2.283 1.287-2.372v-.03h2.451v.042c-.064.137-.394.741-2.9 5.185z" data-color="3"/>
    </g>
</svg>
